<svg width="16.000000" height="21.000000" viewBox="0 0 16 21" fill="none" xmlns="http://www.w3.org/2000/svg" xmlns:xlink="http://www.w3.org/1999/xlink">
	<desc>
			Created with Pixso.
	</desc>
	<defs/>
	<path id="Vector" d="M12.99 -0.44L2.2 -0.44C0.58 -0.44 -0.74 0.87 -0.74 2.49L-0.74 17.6C-0.74 19.22 0.58 20.55 2.2 20.55L12.99 20.55C14.62 20.55 15.93 19.22 15.93 17.6L15.93 2.49C15.93 0.87 14.62 -0.44 12.99 -0.44ZM3.28 14.7L11.91 14.7C12.35 14.7 12.69 15.06 12.69 15.49C12.69 15.92 12.35 16.27 11.91 16.27L3.28 16.27C2.85 16.27 2.49 15.92 2.49 15.49C2.49 15.06 2.85 14.7 3.28 14.7ZM2.49 10.09C2.49 9.66 2.85 9.31 3.28 9.31L11.91 9.31C12.35 9.31 12.69 9.66 12.69 10.09C12.69 10.53 12.35 10.88 11.91 10.88L3.28 10.88C2.85 10.88 2.49 10.53 2.49 10.09ZM11.91 5.49L3.28 5.49C2.85 5.49 2.49 5.14 2.49 4.7C2.49 4.27 2.85 3.91 3.28 3.91L11.91 3.91C12.35 3.91 12.69 4.27 12.69 4.7C12.69 5.14 12.35 5.49 11.91 5.49Z" fill="#000000" fill-opacity="1.000000" fill-rule="nonzero"/>
</svg>
