<svg width="25.000000" height="25.000000" viewBox="0 0 25 25" fill="none" xmlns="http://www.w3.org/2000/svg" xmlns:xlink="http://www.w3.org/1999/xlink">
	<desc>
			Created with Pixso.
	</desc>
	<defs/>
	<path id="Vector" d="M18.53 1.6L5.58 1.6C3.37 1.6 1.56 3.4 1.56 5.62L1.56 18.57C1.56 20.78 3.37 22.59 5.58 22.59L18.53 22.59C20.44 22.59 22.04 21.24 22.44 19.46C22.51 19.34 22.55 19.22 22.55 19.08L22.55 5.62C22.55 3.4 20.74 1.6 18.53 1.6ZM19.32 13.17C19.32 13.6 18.96 13.96 18.53 13.96C18.09 13.96 17.74 13.6 17.74 13.17L17.74 11.01C17.74 10.58 18.09 10.22 18.53 10.22C18.96 10.22 19.32 10.58 19.32 11.01L19.32 13.17ZM4.79 13.17L4.79 11.01C4.79 10.58 5.15 10.22 5.58 10.22C6.02 10.22 6.37 10.58 6.37 11.01L6.37 13.17C6.37 13.6 6.02 13.96 5.58 13.96C5.15 13.96 4.79 13.6 4.79 13.17ZM16.07 8.86L16.07 15.33C16.07 15.77 15.73 16.11 15.29 16.11C14.86 16.11 14.5 15.77 14.5 15.33L14.5 8.86C14.5 8.42 14.86 8.07 15.29 8.07C15.73 8.07 16.07 8.42 16.07 8.86ZM12.84 6.7L12.84 17.49C12.84 17.92 12.49 18.27 12.05 18.27C11.62 18.27 11.27 17.92 11.27 17.49L11.27 6.7C11.27 6.27 11.62 5.91 12.05 5.91C12.49 5.91 12.84 6.27 12.84 6.7ZM9.61 8.86L9.61 15.33C9.61 15.77 9.25 16.11 8.82 16.11C8.38 16.11 8.04 15.77 8.04 15.33L8.04 8.86C8.04 8.42 8.38 8.07 8.82 8.07C9.25 8.07 9.61 8.42 9.61 8.86Z" fill="#000000" fill-opacity="1.000000" fill-rule="nonzero"/>
</svg>
