<svg width="26.000000" height="25.000000" viewBox="0 0 26 25" fill="none" xmlns="http://www.w3.org/2000/svg" xmlns:xlink="http://www.w3.org/1999/xlink">
	<desc>
			Created with Pixso.
	</desc>
	<defs/>
	<path id="Vector" d="M11.65 8.96L11.65 10.97C10.89 10.78 10.39 10.35 10.39 9.97C10.39 9.57 10.89 9.14 11.65 8.96Z" fill="#000000" fill-opacity="1.000000" fill-rule="nonzero"/>
	<path id="Vector" d="M14.48 13.74C14.48 14.13 13.98 14.56 13.22 14.75L13.22 12.74C13.98 12.91 14.48 13.34 14.48 13.74Z" fill="#000000" fill-opacity="1.000000" fill-rule="nonzero"/>
	<path id="Vector" d="M19.67 4.61C17.74 2.68 15.17 1.62 12.44 1.62C9.71 1.62 7.14 2.68 5.21 4.61C3.26 6.54 2.2 9.12 2.2 11.85C2.2 13.2 2.47 14.52 2.98 15.77C3.5 17.02 4.25 18.13 5.21 19.09C6.15 20.04 7.27 20.79 8.52 21.3C9.77 21.82 11.08 22.09 12.44 22.09C13.79 22.09 15.1 21.82 16.35 21.3C17.6 20.79 18.72 20.04 19.67 19.09C20.62 18.13 21.38 17.02 21.89 15.77C22.41 14.52 22.67 13.2 22.67 11.85C22.67 9.12 21.61 6.54 19.67 4.61ZM13.22 16.36L13.22 16.58C13.22 17.01 12.87 17.36 12.44 17.36C12.01 17.36 11.65 17.01 11.65 16.58L11.65 16.35C10.73 16.2 9.91 15.8 9.38 15.2C9.15 14.93 9.13 14.53 9.34 14.24C9.55 13.93 9.93 13.83 10.26 13.95L11.65 14.48L11.65 12.57C10.01 12.32 8.82 11.26 8.82 9.97C8.82 8.66 10.01 7.61 11.65 7.35L11.65 7.13C11.65 6.69 12.01 6.34 12.44 6.34C12.87 6.34 13.22 6.69 13.22 7.13L13.22 7.35C14.15 7.51 14.97 7.91 15.49 8.5C15.72 8.77 15.74 9.17 15.53 9.47C15.39 9.68 15.14 9.81 14.89 9.81C14.8 9.81 14.7 9.79 14.61 9.76L13.22 9.22L13.22 11.13C14.86 11.38 16.06 12.44 16.06 13.74C16.06 15.04 14.86 16.09 13.22 16.36Z" fill="#000000" fill-opacity="1.000000" fill-rule="nonzero"/>
</svg>
