<svg width="24.000000" height="10.000000" viewBox="0 0 24 10" fill="none" xmlns="http://www.w3.org/2000/svg" xmlns:xlink="http://www.w3.org/1999/xlink">
	<desc>
			Created with Pixso.
	</desc>
	<defs>
		<clipPath id="clip4_3365">
			<rect id="dots-vertical" width="10.699301" height="24.000000" transform="translate(24.000000 -0.734253) rotate(90.000000)" fill="white" fill-opacity="0"/>
		</clipPath>
	</defs>
	<rect id="dots-vertical" width="10.699301" height="24.000000" transform="translate(24.000000 -0.734253) rotate(90.000000)" fill="#FFFFFF" fill-opacity="0"/>
	<g clip-path="url(#clip4_3365)">
		<path id="Vector" d="M11 4.61C11 4.36 11.44 4.16 12 4.16C12.55 4.16 13 4.36 13 4.61C13 4.86 12.55 5.06 12 5.06C11.44 5.06 11 4.86 11 4.61Z" stroke="#1A202C" stroke-opacity="1.000000" stroke-width="2.000000" stroke-linejoin="round"/>
		<path id="Vector" d="M4 4.61C4 4.36 4.44 4.16 5 4.16C5.55 4.16 6 4.36 6 4.61C6 4.86 5.55 5.06 5 5.06C4.44 5.06 4 4.86 4 4.61Z" stroke="#1A202C" stroke-opacity="1.000000" stroke-width="2.000000" stroke-linejoin="round"/>
		<path id="Vector" d="M18 4.61C18 4.36 18.44 4.16 19 4.16C19.55 4.16 20 4.36 20 4.61C20 4.86 19.55 5.06 19 5.06C18.44 5.06 18 4.86 18 4.61Z" stroke="#1A202C" stroke-opacity="1.000000" stroke-width="2.000000" stroke-linejoin="round"/>
	</g>
</svg>
