<svg width="10.000000" height="21.000000" viewBox="0 0 10 21" fill="none" xmlns="http://www.w3.org/2000/svg" xmlns:xlink="http://www.w3.org/1999/xlink">
	<desc>
			Created with Pixso.
	</desc>
	<defs/>
	<mask id="mask_4_2564" fill="white">
		<path id="Path 13" d="M8.95312 9.66943L5.97266 9.66943L5.97266 20.3379L1.52734 20.3379L1.52734 9.66943L-0.564453 9.66943L-0.564453 5.9043L1.52734 5.9043L1.52734 3.44629C1.52734 1.72021 2.36426 -0.999023 5.97266 -0.999023L9.26758 -0.999023L9.26758 2.66162L6.91406 2.66162C6.54785 2.66162 5.97266 2.87109 5.97266 3.70752L5.97266 5.9043L9.31934 5.9043L8.95312 9.66943Z" clip-rule="evenodd" fill="" fill-opacity="1.000000" fill-rule="evenodd"/>
	</mask>
	<path id="Path 13" d="M8.95312 9.66943L5.97266 9.66943L5.97266 20.3379L1.52734 20.3379L1.52734 9.66943L-0.564453 9.66943L-0.564453 5.9043L1.52734 5.9043L1.52734 3.44629C1.52734 1.72021 2.36426 -0.999023 5.97266 -0.999023L9.26758 -0.999023L9.26758 2.66162L6.91406 2.66162C6.54785 2.66162 5.97266 2.87109 5.97266 3.70752L5.97266 5.9043L9.31934 5.9043L8.95312 9.66943Z" clip-rule="evenodd" fill="#535353" fill-opacity="1.000000" fill-rule="evenodd" mask="url(#mask_4_2564)"/>
	<path id="Path 13" d="" fill="#707070" fill-opacity="0.000000" fill-rule="nonzero"/>
</svg>
