<svg width="65.000000" height="65.000000" viewBox="0 0 65 65" fill="none" xmlns="http://www.w3.org/2000/svg" xmlns:xlink="http://www.w3.org/1999/xlink">
	<desc>
			Created with Pixso.
	</desc>
	<defs/>
	<path id="Vector" d="M57.55 44.3C55.16 44.3 54.11 43.38 52.62 42.08C50.96 40.67 48.91 38.89 45.03 38.89C41.13 38.89 39.1 40.67 37.45 42.08C35.96 43.38 34.88 44.3 32.49 44.3C30.14 44.3 29.05 43.38 27.57 42.08C25.91 40.67 23.85 38.89 19.98 38.89C16.08 38.89 14.02 40.67 12.37 42.08C10.88 43.38 9.83 44.3 7.44 44.3C6.33 44.3 5.41 45.22 5.41 46.33C5.41 47.47 6.33 48.37 7.44 48.37C11.34 48.37 13.37 46.6 15.03 45.17C16.52 43.87 17.6 42.95 19.98 42.95C22.37 42.95 23.42 43.87 24.91 45.17C26.56 46.6 28.62 48.37 32.49 48.37C36.39 48.37 38.45 46.6 40.1 45.17C41.59 43.87 42.65 42.95 45.03 42.95C47.39 42.95 48.47 43.87 49.96 45.17C51.62 46.6 53.67 48.37 57.55 48.37C58.66 48.37 59.58 47.47 59.58 46.33C59.58 45.22 58.66 44.3 57.55 44.3Z" fill="#FFFFFF" fill-opacity="1.000000" fill-rule="nonzero"/>
	<path id="Vector" d="M57.55 33.15C55.16 33.15 54.11 32.2 52.62 30.92C50.96 29.49 48.91 27.73 45.03 27.73C41.13 27.73 39.1 29.49 37.45 30.92C35.96 32.2 34.88 33.15 32.49 33.15C30.14 33.15 29.05 32.2 27.57 30.92C25.91 29.49 23.85 27.73 19.98 27.73C16.08 27.73 14.02 29.49 12.37 30.92C10.88 32.2 9.83 33.15 7.44 33.15C6.33 33.15 5.41 34.04 5.41 35.18C5.41 36.29 6.33 37.21 7.44 37.21C11.34 37.21 13.37 35.42 15.03 33.99C16.52 32.71 17.6 31.79 19.98 31.79C22.37 31.79 23.42 32.71 24.91 33.99C26.56 35.42 28.62 37.21 32.49 37.21C36.39 37.21 38.45 35.42 40.1 33.99C41.59 32.71 42.65 31.79 45.03 31.79C47.39 31.79 48.47 32.71 49.96 33.99C51.62 35.42 53.67 37.21 57.55 37.21C58.66 37.21 59.58 36.29 59.58 35.18C59.58 34.04 58.66 33.15 57.55 33.15Z" fill="#FFFFFF" fill-opacity="1.000000" fill-rule="nonzero"/>
	<path id="Vector" d="M7.44 26.1C11.34 26.1 13.37 24.32 15.03 22.91C16.52 21.61 17.6 20.69 19.98 20.69C22.37 20.69 23.42 21.61 24.91 22.91C26.56 24.32 28.62 26.1 32.49 26.1C36.39 26.1 38.45 24.32 40.1 22.91C41.59 21.61 42.65 20.69 45.03 20.69C47.39 20.69 48.47 21.61 49.96 22.91C51.62 24.32 53.67 26.1 57.55 26.1C58.66 26.1 59.58 25.18 59.58 24.07C59.58 22.93 58.66 22.04 57.55 22.04C55.16 22.04 54.11 21.12 52.62 19.82C50.96 18.38 48.91 16.62 45.03 16.62C41.13 16.62 39.1 18.38 37.45 19.82C35.96 21.12 34.88 22.04 32.49 22.04C30.14 22.04 29.05 21.12 27.57 19.82C25.91 18.38 23.85 16.62 19.98 16.62C16.08 16.62 14.02 18.38 12.37 19.82C10.88 21.12 9.83 22.04 7.44 22.04C6.33 22.04 5.41 22.93 5.41 24.07C5.41 25.18 6.33 26.1 7.44 26.1Z" fill="#FFFFFF" fill-opacity="1.000000" fill-rule="nonzero"/>
</svg>
