<svg width="21.000000" height="18.000000" viewBox="0 0 21 18" fill="none" xmlns="http://www.w3.org/2000/svg" xmlns:xlink="http://www.w3.org/1999/xlink">
	<desc>
			Created with Pixso.
	</desc>
	<defs/>
	<mask id="mask_4_2580" fill="white">
		<path id="Path 6" d="M20.6162 1.82617C19.8135 2.17725 19.0098 2.42822 18.1064 2.52881C19.0098 1.97656 19.7129 1.12305 20.0137 0.119141C19.1602 0.621094 18.207 0.972656 17.2529 1.17334C16.4492 0.319824 15.2949 -0.232422 14.0391 -0.232422C11.6299 -0.232422 9.67188 1.72559 9.67188 4.13525C9.67188 4.48682 9.72168 4.83838 9.77246 5.13965C6.10742 4.93848 2.89453 3.23145 0.735352 0.570801C0.333984 1.22363 0.132812 1.97656 0.132812 2.77979C0.132812 4.28613 0.885742 5.6416 2.09082 6.44482C1.3877 6.44482 0.68457 6.24414 0.0830078 5.89258L0.0830078 5.94287C0.0830078 8.05127 1.58887 9.85889 3.59668 10.2603C3.24512 10.3608 2.84375 10.4111 2.44238 10.4111C2.14062 10.4111 1.88965 10.3608 1.63867 10.3105C2.19141 12.0679 3.79785 13.3228 5.75586 13.373C4.25 14.5278 2.3916 15.2305 0.333984 15.2305C-0.0175781 15.2305 -0.369141 15.2305 -0.720703 15.1802C1.2373 16.4355 3.49609 17.1382 6.00684 17.1382C14.0898 17.1382 18.458 10.4609 18.458 4.6875L18.458 4.13525C19.3115 3.48291 20.0645 2.6792 20.6162 1.82617Z" clip-rule="evenodd" fill="" fill-opacity="1.000000" fill-rule="evenodd"/>
	</mask>
	<path id="Path 6" d="M20.6162 1.82617C19.8135 2.17725 19.0098 2.42822 18.1064 2.52881C19.0098 1.97656 19.7129 1.12305 20.0137 0.119141C19.1602 0.621094 18.207 0.972656 17.2529 1.17334C16.4492 0.319824 15.2949 -0.232422 14.0391 -0.232422C11.6299 -0.232422 9.67188 1.72559 9.67188 4.13525C9.67188 4.48682 9.72168 4.83838 9.77246 5.13965C6.10742 4.93848 2.89453 3.23145 0.735352 0.570801C0.333984 1.22363 0.132812 1.97656 0.132812 2.77979C0.132812 4.28613 0.885742 5.6416 2.09082 6.44482C1.3877 6.44482 0.68457 6.24414 0.0830078 5.89258L0.0830078 5.94287C0.0830078 8.05127 1.58887 9.85889 3.59668 10.2603C3.24512 10.3608 2.84375 10.4111 2.44238 10.4111C2.14062 10.4111 1.88965 10.3608 1.63867 10.3105C2.19141 12.0679 3.79785 13.3228 5.75586 13.373C4.25 14.5278 2.3916 15.2305 0.333984 15.2305C-0.0175781 15.2305 -0.369141 15.2305 -0.720703 15.1802C1.2373 16.4355 3.49609 17.1382 6.00684 17.1382C14.0898 17.1382 18.458 10.4609 18.458 4.6875L18.458 4.13525C19.3115 3.48291 20.0645 2.6792 20.6162 1.82617Z" clip-rule="evenodd" fill="#535353" fill-opacity="1.000000" fill-rule="evenodd" mask="url(#mask_4_2580)"/>
	<path id="Path 6" d="" fill="#707070" fill-opacity="0.000000" fill-rule="nonzero"/>
</svg>
